<?xml version="1.0" encoding="UTF-8"?>
<svg width="24px" height="24px" viewBox="0 0 24 24" version="1.1" xmlns="http://www.w3.org/2000/svg" xmlns:xlink="http://www.w3.org/1999/xlink">
    <!-- Generator: Sketch 59.1 (86144) - https://sketch.com -->
    <title>icon/关闭摄像头@1x</title>
    <desc>Created with Sketch.</desc>
    <defs>
        <polygon id="path-1" points="0 0 7 0 7 11 0 11"></polygon>
    </defs>
    <g id="icon/关闭摄像头" stroke="none" stroke-width="1" fill="none" fill-rule="evenodd">
        <rect id="矩形" x="0" y="0" width="24" height="24"></rect>
        <g id="编组" transform="translate(17.000000, 6.000000)">
            <mask id="mask-2" fill="white">
                <use xlink:href="#path-1"></use>
            </mask>
            <g id="Clip-2"></g>
        </g>
        <path d="M2.90043479,4.07622675 L4.396,5.68018572 L3.5173082,5.68037744 C3.0538083,5.68037744 2.67815084,6.05653333 2.67815084,6.52064821 L2.67815084,17.4793518 C2.67815084,17.9434667 3.0538083,18.3196226 3.5173082,18.3196226 L15.4826918,18.3196226 C15.6819876,18.3196226 15.8650429,18.2500777 16.0089774,18.1338985 L17.1560555,19.3625029 C16.7112748,19.7590634 16.1250774,20 15.4826918,20 L3.5173082,20 C2.12697241,20 1,18.8715323 1,17.4793518 L1,6.52064821 C1,5.3415784 1.8083533,4.35166419 2.90043479,4.07622675 Z M15.4826918,4 C16.8729293,4 18,5.12846769 18,6.52064821 L18,9.628 L21.8328168,6.30191044 C22.2391306,5.94927058 22.7722949,5.90184957 23.2161805,6.17915869 C23.66004,6.45634006 23.9409141,7.01217175 23.9450945,7.62139599 L23.9999558,15.351627 C24.0040911,15.9753489 23.7175996,16.5476263 23.2611726,16.8269153 C22.8048502,17.1062362 22.2583084,17.0438385 21.8522298,16.6661309 L18,13.081 L18,16.6021857 L16.321,14.8021857 L16.3218492,6.52064821 C16.3218492,6.05653333 15.9461917,5.68037744 15.4826918,5.68037744 L7.814,5.68018572 L6.247,3.99918572 L15.4826918,4 Z M22.6073761,7.63525506 L18.337933,11.3410232 L22.6621923,15.365486 L22.6073761,7.63525506 Z" id="形状结合" fill="#FFFFFF"></path>
        <rect id="矩形备份" fill="#FFFFFF" transform="translate(12.320330, 12.286627) rotate(47.000000) translate(-12.320330, -12.286627) " x="-2.17967008" y="11.286627" width="29" height="2" rx="1"></rect>
    </g>
</svg>