<?xml version="1.0" encoding="UTF-8"?>
<svg width="24px" height="24px" viewBox="0 0 24 24" version="1.1" xmlns="http://www.w3.org/2000/svg" xmlns:xlink="http://www.w3.org/1999/xlink">
    <!-- Generator: Sketch 59.1 (86144) - https://sketch.com -->
    <title>icon/移除备份@1x</title>
    <desc>Created with Sketch.</desc>
    <g id="icon/移除备份" stroke="none" stroke-width="1" fill="none" fill-rule="evenodd">
        <g id="编组-3" transform="translate(1.000000, 4.000000)" fill="#FFFFFF" fill-rule="nonzero">
            <path d="M15,0 L21.25,8.5 L15,16 L2,16 C0.8954305,16 -7.10542736e-15,15.1045695 -7.10542736e-15,14 L-7.10542736e-15,2 C-7.10542736e-15,0.8954305 0.8954305,0 2,0 L15,0 Z M14.2404104,1.5 L2,1.5 C1.72385763,1.5 1.5,1.72385763 1.5,2 L1.5,14 C1.5,14.2761424 1.72385763,14.5 2,14.5 L14.2958904,14.5 L19.3454919,8.4420941 L14.2404104,1.5 Z M11.7972673,4.20273174 C12.0675776,4.47304074 12.0675776,4.91150438 11.7972673,5.18181337 L8.97908634,7.99998077 L11.7972673,10.8181482 C12.0675776,11.0884572 12.0675776,11.5269208 11.7972673,11.7972298 C11.6620352,11.9324612 11.4849566,12 11.3077241,12 C11.1304916,12 10.953413,11.9324612 10.8181809,11.7972298 L8,8.9790624 L5.18181906,11.7972298 C5.04658699,11.9324612 4.86950836,12 4.69227589,12 C4.51504341,12 4.33796479,11.9324612 4.20273272,11.7972298 C3.93242243,11.5269208 3.93242243,11.0884572 4.20273272,10.8181482 L7.02091366,7.99998077 L4.20273272,5.18181337 C3.93242243,4.91150438 3.93242243,4.47304074 4.20273272,4.20273174 C4.47319686,3.93242275 4.91135492,3.93242275 5.18181906,4.20273174 L8,7.02089914 L10.8181809,4.20273174 C11.0886451,3.93242275 11.5268031,3.93242275 11.7972673,4.20273174 Z" id="形状结合"></path>
        </g>
    </g>
</svg>