<?xml version="1.0" encoding="UTF-8"?>
<svg width="24px" height="24px" viewBox="0 0 24 24" version="1.1" xmlns="http://www.w3.org/2000/svg" xmlns:xlink="http://www.w3.org/1999/xlink">
    <!-- Generator: Sketch 59.1 (86144) - https://sketch.com -->
    <title>icon/挂断@1x</title>
    <desc>Created with Sketch.</desc>
    <defs>
        <polygon id="path-1" points="0 0 7 0 7 11 0 11"></polygon>
    </defs>
    <g id="icon/挂断" stroke="none" stroke-width="1" fill="none" fill-rule="evenodd">
        <rect id="矩形" x="0" y="0" width="24" height="24"></rect>
        <g id="编组" transform="translate(17.000000, 6.000000)">
            <mask id="mask-2" fill="white">
                <use xlink:href="#path-1"></use>
            </mask>
            <g id="Clip-2"></g>
        </g>
        <g id="Group-206" transform="translate(-2.000000, 0.000000)">
            <rect id="Rectangle-48-Copy-36" x="2" y="0" width="24" height="24"></rect>
            <g id="phone" transform="translate(0.476562, 0.476562)" fill="#FFFFFF" fill-rule="nonzero">
                <path d="M21.9350464,6.13670745 C21.2903179,5.14126808 20.4003812,4 19.2335284,4 C18.8931963,4 18.3816413,4.10355951 17.8848833,4.60022247 C17.4198332,5.06307008 16.7603077,5.77741935 16.259322,6.55094549 C15.6315044,7.5189099 15.4306874,8.31779755 15.6441876,8.9919911 C15.7815888,9.43370412 16.2064754,9.87964405 16.9484416,10.6278087 L16.956897,10.6362625 C17.2697489,10.9532814 17.624878,11.3125695 17.7601653,11.5027809 C17.8869971,11.6824249 17.7284574,12.1685206 17.345848,12.77297 C16.8469761,13.5634038 16.0141138,14.4764182 15.265806,15.2647386 C14.6274191,15.8713014 13.8791113,16.5602892 13.1773085,17.0696329 C12.2979411,17.7057842 11.849802,17.8008899 11.6595543,17.8008899 C11.5644304,17.8008899 11.5221531,17.7734149 11.5010145,17.7586207 C11.3149945,17.6254727 10.9725485,17.2894327 10.6258749,16.9470523 C9.85220068,16.1862069 9.42942792,15.7804227 8.98974424,15.6451613 C8.8164074,15.5923248 8.63672898,15.5648498 8.45070896,15.5648498 C7.8461439,15.5648498 7.15702429,15.8374861 6.34318671,16.3996663 C5.6540671,16.8751947 5.01568022,17.4690768 4.60347677,17.8833148 C4.03696126,18.4497219 3.96931762,19.0309232 4.00948103,19.4197998 C4.12362968,20.5061179 5.20592797,21.334594 6.13391419,21.9369299 C7.22255407,22.6428254 8.47396146,23 9.85220068,23 C12.7101446,23 15.9253315,21.4212458 18.6754684,18.6716352 C19.6330487,17.714238 20.4574556,16.6892102 21.1296643,15.6261402 C21.8061007,14.5525028 22.3070864,13.4619577 22.6199383,12.3883204 C23.3006024,10.040267 23.0638497,7.88031146 21.9350464,6.13670745 Z" id="Shape" transform="translate(13.500000, 13.500000) rotate(-135.000000) translate(-13.500000, -13.500000) "></path>
            </g>
        </g>
    </g>
</svg>