<?xml version="1.0" encoding="UTF-8"?>
<svg width="24px" height="24px" viewBox="0 0 24 24" version="1.1" xmlns="http://www.w3.org/2000/svg" xmlns:xlink="http://www.w3.org/1999/xlink">
    <!-- Generator: Sketch 59.1 (86144) - https://sketch.com -->
    <title>icon/邀请@1x</title>
    <desc>Created with Sketch.</desc>
    <defs>
        <polygon id="path-1" points="0 0 7 0 7 11 0 11"></polygon>
    </defs>
    <g id="icon/邀请" stroke="none" stroke-width="1" fill="none" fill-rule="evenodd">
        <rect id="矩形" x="0" y="0" width="24" height="24"></rect>
        <g id="编组" transform="translate(17.000000, 6.000000)">
            <mask id="mask-2" fill="white">
                <use xlink:href="#path-1"></use>
            </mask>
            <g id="Clip-2"></g>
        </g>
        <g id="adduser" transform="translate(3.000000, 2.000000)" fill="#FFFFFF" fill-rule="nonzero">
            <path d="M17.1539062,16.396875 L15.0960938,16.396875 L15.0960938,14.3390625 C15.0960938,13.8726563 14.7164062,13.4929687 14.25,13.4929687 C13.7835938,13.4929687 13.4039062,13.8726563 13.4039062,14.3390625 L13.4039062,16.396875 L11.3460938,16.396875 C10.8796875,16.396875 10.5,16.7765625 10.5,17.2429687 C10.5,17.709375 10.8796875,18.0890625 11.3460938,18.0890625 L13.4039062,18.0890625 L13.4039062,20.146875 C13.4039062,20.6132812 13.7835938,20.9929687 14.25,20.9929687 C14.7164062,20.9929687 15.0960938,20.6132812 15.0960938,20.146875 L15.0960938,18.0890625 L17.1539062,18.0890625 C17.6203125,18.0890625 18,17.709375 18,17.2429687 C18,16.7742187 17.6203125,16.396875 17.1539062,16.396875 Z M14.25,5.26171875 C14.25,2.35546875 11.8992188,0 9,0 C6.10078125,0 3.75,2.35546875 3.75,5.26171875 C3.75,8.16796875 6.10078125,10.5234375 9,10.5234375 C11.8992188,10.5234375 14.25,8.16796875 14.25,5.26171875 Z M9,8.83125 C7.03359375,8.83125 5.4375,7.2328125 5.4375,5.26171875 C5.4375,3.290625 7.03359375,1.6921875 9,1.6921875 C10.9664062,1.6921875 12.5625,3.290625 12.5625,5.26171875 C12.5625,7.2328125 10.9664062,8.83125 9,8.83125 Z M13.921875,11.990625 C12.50625,11.0625 10.8164062,10.5234375 9,10.5234375 C4.02890625,10.5234375 0,14.5617188 0,19.5445312 L0.00234375,19.5445312 C0.00234375,19.5609375 0,19.575 0,19.5914062 C0,20.0578125 0.37734375,20.4375 0.84375,20.4375 C1.31015625,20.4375 1.6875,20.0578125 1.6875,19.5914062 C1.6875,19.575 1.6875,19.5609375 1.68515625,19.5445312 L1.6875,19.5445312 C1.6875,15.496875 4.96171875,12.215625 9,12.215625 C9.91875,12.215625 10.7976563,12.384375 11.60625,12.6960938 C12.2953125,12.2929688 13.0804687,12.0421875 13.921875,11.990625 Z" id="Shape"></path>
        </g>
    </g>
</svg>