<?xml version="1.0" encoding="UTF-8"?>
<svg width="24px" height="24px" viewBox="0 0 24 24" version="1.1" xmlns="http://www.w3.org/2000/svg" xmlns:xlink="http://www.w3.org/1999/xlink">
    <!-- Generator: Sketch 59.1 (86144) - https://sketch.com -->
    <title>icon/静音@1x</title>
    <desc>Created with Sketch.</desc>
    <defs>
        <polygon id="path-1" points="0.00200440784 0.00133627189 15.5435481 0.00133627189 15.5435481 19.0993342 0.00200440784 19.0993342"></polygon>
    </defs>
    <g id="icon/静音" stroke="none" stroke-width="1" fill="none" fill-rule="evenodd">
        <rect id="矩形" x="0" y="0" width="24" height="24"></rect>
        <g id="yuyin-" transform="translate(4.000000, 0.000000)">
            <g id="编组">
                <mask id="mask-2" fill="white">
                    <use xlink:href="#path-1"></use>
                </mask>
                <g id="Clip-2"></g>
                <path d="M8.05768612,15.5448844 L7.48312261,15.5448844 C5.07522747,15.5448844 3.11882519,13.5859098 3.11882519,11.1806203 L3.11882519,4.36563369 C3.11882519,1.95760492 5.0778332,0.00133627189 7.48312261,0.00133627189 L8.05768612,0.00133627189 C10.4657149,0.00133627189 12.4219864,1.96034428 12.4219864,4.36563369 L12.4219864,11.1806203 C12.4247229,13.5859098 10.4657149,15.5448844 8.05768612,15.5448844 Z M7.48572834,1.67428187 C6.00253335,1.67428187 4.79454356,2.87966593 4.79454356,4.36289433 L4.79454356,11.177881 C4.79454356,12.6612096 6.00253335,13.86646 7.48572834,13.86646 L8.06042547,13.86646 C9.54365387,13.86646 10.7516437,12.6612096 10.7516437,11.177881 L10.7516437,4.36289433 C10.7516437,2.87966593 9.54365387,1.67428187 8.06042547,1.67428187 L7.48572834,1.67428187 Z" id="Fill-1" fill="#FFFFFF" mask="url(#mask-2)"></path>
                <path d="M7.77179074,19.0993342 C3.4849971,19.0993342 0,15.6116979 0,11.3275434 C0,10.8651934 0.374122724,10.4910706 0.836472799,10.4910706 C1.29882287,10.4910706 1.6729456,10.8651934 1.6729456,11.3275434 C1.6729456,14.6896369 4.40969725,17.4263886 7.77179074,17.4263886 C11.1338508,17.4263886 13.8704689,14.6896369 13.8704689,11.3275434 C13.8704689,10.8651934 14.2445916,10.4910706 14.7069417,10.4910706 C15.1692917,10.4910706 15.5435481,10.8651934 15.5435481,11.3275434 C15.5435481,15.6116979 12.058551,19.0993342 7.77179074,19.0993342 Z" id="Fill-3" fill="#FFFFFF" mask="url(#mask-2)"></path>
            </g>
            <path d="M7.77179074,23.9527071 C7.30944067,23.9527071 6.93531794,23.5785844 6.93531794,23.1162343 L6.93531794,18.2628614 C6.93531794,17.8005113 7.30944067,17.4263886 7.77179074,17.4263886 C8.23410741,17.4263886 8.60826354,17.8005113 8.60826354,18.2628614 L8.60826354,23.1162343 C8.60826354,23.5785844 8.23410741,23.9527071 7.77179074,23.9527071 Z" id="Fill-4" fill="#FFFFFF"></path>
            <path d="M6.64391045,10.7769994 C6.18156038,10.7769994 5.80743765,10.4028433 5.80743765,9.94052662 L5.80743765,5.08451456 C5.80743765,4.62216448 6.18156038,4.24804176 6.64391045,4.24804176 C7.10626053,4.24804176 7.48053031,4.62216448 7.48053031,5.08451456 L7.48053031,9.93788748 C7.48312261,10.4028433 7.10626053,10.7769994 6.64391045,10.7769994 Z" id="Fill-5" fill="#FFFFFF"></path>
            <path d="M12.8817279,23.9527071 L2.66185361,23.9527071 C2.19950354,23.9527071 1.82538081,23.5785844 1.82538081,23.1162343 C1.82538081,22.6537506 2.19950354,22.2796279 2.66185361,22.2796279 L12.8789885,22.2796279 C13.3413052,22.2796279 13.7154613,22.6537506 13.7154613,23.1162343 C13.7154613,23.5785844 13.3440445,23.9527071 12.8817279,23.9527071 Z" id="Fill-6" fill="#FFFFFF"></path>
        </g>
    </g>
</svg>