<?xml version="1.0" encoding="UTF-8"?>
<svg width="24px" height="24px" viewBox="0 0 24 24" version="1.1" xmlns="http://www.w3.org/2000/svg" xmlns:xlink="http://www.w3.org/1999/xlink">
    <!-- Generator: Sketch 59.1 (86144) - https://sketch.com -->
    <title>icon/关闭静音@1x</title>
    <desc>Created with Sketch.</desc>
    <g id="icon/关闭静音" stroke="none" stroke-width="1" fill="none" fill-rule="evenodd">
        <rect id="矩形" x="0" y="0" width="24" height="24"></rect>
        <path d="M4.8364728,10.4910706 C5.29882287,10.4910706 5.6729456,10.8651934 5.6729456,11.3275434 C5.6729456,14.6896369 8.40969725,17.4263886 11.7717907,17.4263886 C12.8599595,17.4263886 13.8826091,17.1396957 14.7681587,16.6378986 L15.9341695,17.8883574 C14.9526632,18.5132699 13.8221027,18.9241341 12.6086389,19.0546047 L12.6073808,22.2790418 L16.8789885,22.2796279 C17.3413052,22.2796279 17.7154613,22.6537506 17.7154613,23.1162343 C17.7154613,23.5785844 17.3440445,23.9527071 16.8817279,23.9527071 L6.66185361,23.9527071 C6.19950354,23.9527071 5.82538081,23.5785844 5.82538081,23.1162343 C5.82538081,22.6537506 6.19950354,22.2796279 6.66185361,22.2796279 L10.9343808,22.2790418 L10.9353648,19.0546508 C7.04073581,18.6361248 4,15.3293239 4,11.3275434 C4,10.8651934 4.37412272,10.4910706 4.8364728,10.4910706 Z M18.7069417,10.4910706 C19.1692917,10.4910706 19.5435481,10.8651934 19.5435481,11.3275434 C19.5435481,13.1458822 18.9157474,14.8207332 17.8653036,16.1463359 L16.706,14.9043363 L16.8093698,14.7610908 C17.4786432,13.7823712 17.8704689,12.5997252 17.8704689,11.3275434 C17.8704689,10.8651934 18.2445916,10.4910706 18.7069417,10.4910706 Z M7.117,8.43333627 L8.793,10.2313363 L8.79454356,11.177881 C8.79454356,12.6612096 10.0025333,13.86646 11.4857283,13.86646 L12.0604255,13.86646 L12.179,13.8623363 L13.5150123,15.2948894 C13.0590659,15.4567403 12.5684779,15.5448844 12.0576861,15.5448844 L11.4831226,15.5448844 C9.07522747,15.5448844 7.11882519,13.5859098 7.11882519,11.1806203 L7.117,8.43333627 Z M12.0576861,0.00133627189 C14.4657149,0.00133627189 16.4219864,1.96034428 16.4219864,4.36563369 L16.4219864,11.1806203 C16.4230643,12.1280498 16.1197724,13.0062324 15.6045588,13.7227238 L14.424,12.4573363 L14.4725918,12.3696376 C14.6511681,12.0103422 14.7516437,11.6056763 14.7516437,11.177881 L14.7516437,4.36289433 C14.7516437,2.87966593 13.5436539,1.67428187 12.0604255,1.67428187 L11.4857283,1.67428187 C10.0025333,1.67428187 8.79454356,2.87966593 8.79454356,4.36289433 L8.793,6.41833627 L7.117,4.62133627 L7.11882519,4.36563369 C7.11882519,1.95760492 9.0778332,0.00133627189 11.4831226,0.00133627189 L12.0576861,0.00133627189 Z M10.6439105,4.24804176 C11.1062605,4.24804176 11.4805303,4.62216448 11.4805303,5.08451456 L11.479,9.29833627 L9.806,7.50533627 L9.80743765,5.08451456 C9.80743765,4.62216448 10.1815604,4.24804176 10.6439105,4.24804176 Z" id="形状结合" fill="#FFFFFF"></path>
        <rect id="矩形" fill="#FFFFFF" transform="translate(12.500000, 12.286627) rotate(47.000000) translate(-12.500000, -12.286627) " x="-2" y="11.286627" width="29" height="2" rx="1"></rect>
    </g>
</svg>