<?xml version="1.0" encoding="UTF-8"?>
<svg width="12px" height="12px" viewBox="0 0 12 12" version="1.1" xmlns="http://www.w3.org/2000/svg" xmlns:xlink="http://www.w3.org/1999/xlink">
    <!-- Generator: Sketch 59.1 (86144) - https://sketch.com -->
    <title>icon/注</title>
    <desc>Created with Sketch.</desc>
    <g id="icon/注" stroke="none" stroke-width="1" fill="none" fill-rule="evenodd">
        <path d="M6,12 C2.6859375,12 0,9.3140625 0,6 C0,2.6859375 2.6859375,0 6,0 C9.3140625,0 12,2.6859375 12,6 C12,9.3140625 9.3140625,12 6,12 L6,12 Z M6.375,2.625 C6.375,2.41757813 6.20742188,2.25 6,2.25 L6,2.25 C5.79257813,2.25 5.625,2.41757813 5.625,2.625 L5.625,2.625 C5.625,2.83242187 5.79257813,3 6,3 L6,3 C6.20742188,3 6.375,2.83242187 6.375,2.625 L6.375,2.625 L6.375,2.625 Z M6.375,4.125 C6.375,3.91757813 6.20742188,3.75 6,3.75 L6,3.75 C5.79257813,3.75 5.625,3.91757813 5.625,4.125 L5.625,9.375 C5.625,9.58242188 5.79257813,9.75 6,9.75 L6,9.75 C6.20742188,9.75 6.375,9.58242188 6.375,9.375 L6.375,4.125 L6.375,4.125 Z" id="Shape-Copy-2" fill="#FF8800" transform="translate(6.000000, 6.000000) scale(1, -1) translate(-6.000000, -6.000000) "></path>
    </g>
</svg>