<?xml version="1.0" encoding="UTF-8"?>
<svg width="24px" height="24px" viewBox="0 0 24 24" version="1.1" xmlns="http://www.w3.org/2000/svg" xmlns:xlink="http://www.w3.org/1999/xlink">
    <!-- Generator: Sketch 59.1 (86144) - https://sketch.com -->
    <title>icon/打开画板@1x</title>
    <desc>Created with Sketch.</desc>
    <g id="icon/打开画板" stroke="none" stroke-width="1" fill="none" fill-rule="evenodd">
        <rect id="矩形" x="0" y="0" width="24" height="24"></rect>
        <g id="编组-2" transform="translate(1.000000, 1.000000)" fill="#FFFFFF">
            <g id="编组">
                <path d="M3.24529512,10.6286293 C3.24529512,11.1639537 3.53078537,11.6585244 3.99431463,11.9260927 C4.4578439,12.1937415 5.02890488,12.1937415 5.49246098,11.9260927 C5.95599024,11.6585244 6.2415878,11.1639537 6.2415878,10.6286293 C6.2415878,9.80132195 5.5708561,9.13048293 4.74344146,9.13048293 C3.91602683,9.13048293 3.24529512,9.80132195 3.24529512,10.6286293 Z" id="Fill-4"></path>
                <path d="M10.7832732,21.839078 L10.7574902,21.839078 C3.34402683,21.839078 0,15.4365146 0,10.8884439 C0,6.36822195 3.40836341,0.00214634146 10.989322,0.00214634146 C18.6602927,0.00214634146 21.9785098,6.4862439 21.9785098,9.79378293 C21.9785098,13.3115561 19.2655073,15.2948293 17.6643366,15.9129488 C16.4174195,16.3937829 14.6209049,16.3894902 13.1979073,16.3379244 L12.9746878,16.331539 C13.0025634,16.3422171 12.6934902,16.5096854 12.6934902,17.0805585 C12.6934902,17.2136585 12.7106878,17.2587049 12.7106878,17.2609049 C12.7320707,17.2908732 12.7643463,17.3188561 12.7943146,17.3488512 C13.1527268,17.726661 13.502661,18.1902976 13.502661,19.3364171 C13.502661,20.0296585 13.2643366,20.6285146 12.8158049,21.070661 C12.0667854,21.8003902 10.9979073,21.839078 10.7832732,21.839078 Z M10.989322,1.8544122 C4.08663415,1.8544122 1.85226585,7.94151707 1.85226585,10.8884439 C1.85226585,13.8567268 4.03297561,19.9867049 10.7746878,19.9867049 C11.1781732,19.9867049 11.6481951,19.8708024 11.6481951,19.3342171 C11.6481951,18.832 11.5773659,18.7568512 11.4485585,18.6216585 C11.1545902,18.3103854 10.8390244,17.9112195 10.8390244,17.078439 C10.8390244,15.3806561 12.071078,14.4749537 12.9617829,14.4749537 C13.0218268,14.4749537 13.1270512,14.4792732 13.2686561,14.4835659 C13.9319293,14.5114415 15.9472634,14.5865902 16.996878,14.1829976 C18.0786341,13.7666073 20.1240455,12.3135341 20.1240455,9.79378293 C20.1262439,7.75905122 17.876878,1.8544122 10.989322,1.8544122 Z" id="Fill-6"></path>
            </g>
            <path d="M16.1533122,9.21853659 C16.1533122,10.0459244 16.8241512,10.7166561 17.6515659,10.7166561 C18.4788732,10.7166561 19.1497122,10.0459244 19.1497122,9.21853659 C19.1497122,8.39112195 18.4788732,7.72039024 17.6515659,7.72039024 C16.8241512,7.72039024 16.1533122,8.39112195 16.1533122,9.21853659 Z" id="Fill-1"></path>
            <path d="M12.4058,4.90656341 C12.4058,5.73397805 13.076639,6.40470976 13.9039463,6.40470976 C14.731361,6.40470976 15.4020927,5.73397805 15.4020927,4.90656341 C15.4020927,4.07914878 14.731361,3.40841707 13.9039463,3.40841707 C13.076639,3.40841707 12.4058,4.07914878 12.4058,4.90656341 Z" id="Fill-2"></path>
            <path d="M6.49268293,5.5697561 C6.49268293,6.3971439 7.16341463,7.06787561 7.99082927,7.06787561 C8.8182439,7.06787561 9.48897561,6.3971439 9.48897561,5.5697561 C9.48897561,4.74234146 8.8182439,4.07160976 7.99082927,4.07160976 C7.16341463,4.07160976 6.49268293,4.74234146 6.49268293,5.5697561 Z" id="Fill-3"></path>
        </g>
    </g>
</svg>