<?xml version="1.0" encoding="UTF-8"?>
<svg width="24px" height="24px" viewBox="0 0 24 24" version="1.1" xmlns="http://www.w3.org/2000/svg" xmlns:xlink="http://www.w3.org/1999/xlink">
    <!-- Generator: Sketch 59.1 (86144) - https://sketch.com -->
    <title>icon/清除@1x</title>
    <desc>Created with Sketch.</desc>
    <g id="icon/清除" stroke="none" stroke-width="1" fill="none" fill-rule="evenodd">
        <path d="M13.2880008,18.7927689 L5.69330605,11.4273036 L3.33191589,13.7174203 L3.33048696,13.7187344 C3.05196768,13.9901374 3.05302706,14.4291752 3.33290137,14.6993836 L8.81880726,19.9955532 L8.93930596,20.1192245 L11.9263236,20.1192245 L12.0478817,19.9955532 L13.2880008,18.7927689 Z M14.0014092,18.1007975 L20.7590186,11.5471519 C21.0382031,11.276394 21.0382031,10.8373562 20.7590186,10.5665983 L14.175493,4.18178222 C13.89621,3.91102433 13.4436069,3.91102433 13.1643239,4.18178222 L6.40681307,10.7353322 L14.0015078,18.1007975 L14.0014092,18.1007975 Z M7.5168251,20.1192245 L2.62102038,15.3930274 C1.94609463,14.7415551 1.94360631,13.682799 2.61535391,13.0284356 L12.4508169,3.4897153 C13.1241905,2.83676157 14.2157249,2.83676157 14.8890986,3.4897153 L21.4727227,9.87453143 C22.1458993,10.5274852 22.1458993,11.5862651 21.4727227,12.2392189 L13.3471784,20.1192245 L21.4252722,20.1192245 C21.7427669,20.1192245 22,20.3164152 22,20.5596481 C22,20.8027854 21.7427669,21 21.4253708,21 L2.57472779,21 C2.25733161,21 2,20.8027854 2,20.5596481 C2,20.3164152 2.25733161,20.1192245 2.57472779,20.1192245 L7.5168251,20.1192245 Z" id="Fill-1" stroke="#FFFFFF" stroke-width="0.6" fill="#FFFFFF"></path>
    </g>
</svg>