<?xml version="1.0" encoding="UTF-8"?>
<svg width="24px" height="24px" viewBox="0 0 24 24" version="1.1" xmlns="http://www.w3.org/2000/svg" xmlns:xlink="http://www.w3.org/1999/xlink">
    <!-- Generator: Sketch 59.1 (86144) - https://sketch.com -->
    <title>icon/标记画笔@1x</title>
    <desc>Created with Sketch.</desc>
    <g id="icon/标记画笔" stroke="none" stroke-width="1" fill="none" fill-rule="evenodd">
        <rect id="矩形" x="0" y="0" width="24" height="24"></rect>
        <path d="M21.2727927,7.56313151 L16.4546249,2.68965349 C15.5455064,1.7701155 14.0001605,1.7701155 13.0910176,2.68965349 L3.81818845,11.9770848 C3.45460913,12.2528729 3.27269787,12.6206637 3.18188816,13.080335 L2,19.8850871 C2,20.436761 2.1818383,21.0804376 2.5453933,21.4483261 C2.90914286,21.8160191 3.36350758,22 3.90919272,22 L4.18193801,22 L10.9090796,20.8045518 C11.3636389,20.7125735 11.7273885,20.5286659 12.0000365,20.1609729 L21.2727927,10.8735415 C21.727352,10.4137725 22,9.8620009 22,9.21842203 C22,8.57467215 21.727352,8.02299822 21.2727927,7.56313151 Z M10.7273386,18.9654514 L3.90909544,20.1609729 L5.09088632,13.3563185 L11.9091295,6.55166416 L17.5456061,12.1608947 L10.7273386,18.9654514 Z M20.0000948,9.58611507 L18.7273727,10.9655442 L13.0910176,5.35633807 L14.3636182,4.06888717 C14.5454322,3.88510173 14.9091088,3.88510173 15.1817568,4.06888717 L20.0000948,8.9425362 C20.0910018,9.03453886 20.1819088,9.21842203 20.1819088,9.31032697 C20.1819088,9.40223191 20.0910018,9.49423457 20.0000948,9.58611507 Z" id="Fill-1" fill="#FFFFFF"></path>
    </g>
</svg>