<?xml version="1.0" encoding="UTF-8"?>
<svg width="24px" height="24px" viewBox="0 0 24 24" version="1.1" xmlns="http://www.w3.org/2000/svg" xmlns:xlink="http://www.w3.org/1999/xlink">
    <!-- Generator: Sketch 59.1 (86144) - https://sketch.com -->
    <title>icon/缩小@1x</title>
    <desc>Created with Sketch.</desc>
    <g id="icon/缩小" stroke="none" stroke-width="1" fill="none" fill-rule="evenodd">
        <path d="M10,13 C10.0112225,13 10.0224019,13.0001849 10.0335352,13.0005517 C10.0521272,13.0011694 10.0712117,13.0023409 10.0902563,13.0040566 C10.107284,13.0055504 10.1236539,13.0074342 10.1398986,13.0097083 C10.1615761,13.0128121 10.1836114,13.0166508 10.2055227,13.0212304 C10.2249663,13.025207 10.2440006,13.0297828 10.2628145,13.034894 C10.2793299,13.039448 10.2963013,13.0445292 10.3131546,13.0500702 C10.3367776,13.0578107 10.359473,13.0662421 10.3817627,13.0754561 C10.392306,13.0797987 10.4032897,13.0845549 10.4142026,13.0895175 C10.4412086,13.1018617 10.4673327,13.1152075 10.4927623,13.1296356 C10.5017417,13.1346345 10.5107021,13.1399 10.5195962,13.1453169 C10.5409505,13.158427 10.5618533,13.1722671 10.5821867,13.1868509 C10.6256994,13.2179519 10.667642,13.2534285 10.7071068,13.2928932 L10.6215925,13.2166092 C10.6830664,13.2654519 10.7386596,13.3213778 10.7871379,13.3831528 C10.7949756,13.393032 10.8026914,13.4032476 10.8101853,13.4135743 C10.8245831,13.4335467 10.8384932,13.4543017 10.8516276,13.4755862 C10.8613648,13.4912297 10.8701866,13.5064512 10.8785739,13.5218466 C10.8879406,13.5391439 10.8971507,13.5572989 10.9058129,13.5757622 C10.9147866,13.5948444 10.9230835,13.6141449 10.9307447,13.6336374 C10.9372717,13.6501498 10.9434743,13.6672299 10.9492179,13.6845196 C10.954874,13.7017685 10.9600203,13.7188351 10.9647011,13.7360021 C10.9704401,13.756709 10.9754783,13.7778335 10.9798348,13.7992059 C10.9832818,13.8165462 10.9863441,13.8338932 10.9889467,13.8512957 C10.9962388,13.8996379 11,13.9493797 11,14 L10.9964029,13.9149976 C10.9978699,13.9322977 10.9988882,13.9496288 10.9994578,13.9669718 L11,14 L11,22 C11,22.5522847 10.5522847,23 10,23 C9.44771525,23 9,22.5522847 9,22 L9,22 L8.99971863,16.4137186 L2.22182541,23.1923882 C1.86134145,23.5528721 1.29411039,23.5806017 0.901819182,23.2755768 L0.807611845,23.1923882 C0.417087553,22.8018639 0.417087553,22.1686989 0.807611845,21.7781746 L0.807611845,21.7781746 L7.58571863,14.9997186 L2,15 C1.48716416,15 1.06449284,14.6139598 1.00672773,14.1166211 L1,14 C1,13.4477153 1.44771525,13 2,13 L2,13 Z M21.7781746,0.807611845 C22.1686989,0.417087553 22.8018639,0.417087553 23.1923882,0.807611845 C23.5829124,1.19813614 23.5829124,1.83130112 23.1923882,2.22182541 L23.1923882,2.22182541 L16.4137186,8.99971863 L22,9 C22.5128358,9 22.9355072,9.38604019 22.9932723,9.88337887 L23,10 C23,10.5522847 22.5522847,11 22,11 L22,11 L14,11 C13.9888734,11 13.9777892,10.9998183 13.9667503,10.9994576 C13.9496288,10.9988882 13.9322977,10.9978699 13.9149976,10.9964029 C13.8934218,10.9946202 13.8721228,10.9921295 13.8510388,10.9889807 C13.8338932,10.9863441 13.8165462,10.9832818 13.7992742,10.9797599 C13.7778335,10.9754783 13.756709,10.9704401 13.7358562,10.9647439 C13.7188351,10.9600203 13.7017685,10.954874 13.6848222,10.9492622 C13.6672299,10.9434743 13.6501498,10.9372717 13.6332937,10.9306242 C13.6141449,10.9230835 13.5948444,10.9147866 13.5757679,10.9058541 C13.5572989,10.8971507 13.5391439,10.8879406 13.5213178,10.8782035 C13.5064512,10.8701866 13.4912297,10.8613648 13.4762,10.8521085 C13.4543017,10.8384932 13.4335467,10.8245831 13.4133605,10.8099369 C13.371341,10.7795372 13.3309641,10.7451777 13.2928932,10.7071068 L13.3831528,10.7871379 C13.3213778,10.7386596 13.2654519,10.6830664 13.2166092,10.6215925 C13.20595,10.6082645 13.1960229,10.5951131 13.1864634,10.5817796 C13.1722671,10.5618533 13.158427,10.5409505 13.1453705,10.5195178 C13.1399,10.5107021 13.1346345,10.5017417 13.1295205,10.4927187 C13.1152075,10.4673327 13.1018617,10.4412086 13.0896608,10.4144525 C13.0845549,10.4032897 13.0797987,10.392306 13.0752488,10.3812573 C13.0662421,10.359473 13.0578107,10.3367776 13.0501961,10.3137106 C13.0445292,10.2963013 13.039448,10.2793299 13.0348268,10.26226 C13.0297828,10.2440006 13.025207,10.2249663 13.0211841,10.2057289 C13.0166508,10.1836114 13.0128121,10.1615761 13.0097143,10.139457 C13.0033088,10.0941839 13,10.0474783 13,10 L13.0040566,10.0902563 C13.0023409,10.0712117 13.0011694,10.0521272 13.0005422,10.0330282 L13,10 L13,2 C13,1.44771525 13.4477153,1 14,1 C14.5522847,1 15,1.44771525 15,2 L15,2 L14.9997186,7.58571863 Z" id="形状结合" fill="#FFFFFF" fill-rule="nonzero"></path>
    </g>
</svg>