<?xml version="1.0" encoding="UTF-8"?>
<svg width="14px" height="14px" viewBox="0 0 14 14" version="1.1" xmlns="http://www.w3.org/2000/svg" xmlns:xlink="http://www.w3.org/1999/xlink">
    <!-- Generator: Sketch 59.1 (86144) - https://sketch.com -->
    <title>icon/提示@1x</title>
    <desc>Created with Sketch.</desc>
    <g id="icon/提示" stroke="none" stroke-width="1" fill="none" fill-rule="evenodd">
        <path d="M1,7 C1,3.6859375 3.6859375,1 7,1 C10.3140625,1 13,3.6859375 13,7 C13,10.3140625 10.3140625,13 7,13 C3.6859375,13 1,10.3140625 1,7 Z M7.6,3.5 C7.6,3.2234375 7.3765625,3 7.1,3 L7.1,3 C6.8234375,3 6.6,3.2234375 6.6,3.5 L6.6,3.5 C6.6,3.7765625 6.8234375,4 7.1,4 L7.1,4 C7.3765625,4 7.6,3.7765625 7.6,3.5 L7.6,3.5 L7.6,3.5 Z M7.1,5 C7.37614237,5 7.6,5.22385763 7.6,5.5 L7.6,10.5 C7.6,10.7761424 7.37614237,11 7.1,11 C6.82385763,11 6.6,10.7761424 6.6,10.5 L6.6,5.5 C6.6,5.22385763 6.82385763,5 7.1,5 Z" id="Shape-Copy-2" fill="#F19548" transform="translate(7.000000, 7.000000) scale(1, -1) translate(-7.000000, -7.000000) "></path>
    </g>
</svg>