<?xml version="1.0" encoding="UTF-8"?>
<svg width="16px" height="16px" viewBox="0 0 16 16" version="1.1" xmlns="http://www.w3.org/2000/svg" xmlns:xlink="http://www.w3.org/1999/xlink">
    <!-- Generator: Sketch 59.1 (86144) - https://sketch.com -->
    <title>icon/sou@1x</title>
    <desc>Created with Sketch.</desc>
    <g id="icon/sou" stroke="none" stroke-width="1" fill="none" fill-rule="evenodd">
        <path d="M15.1747594,15.7262758 C14.814226,16.0912414 14.2733159,16.0912414 13.9127385,15.7262758 L10.9380631,12.715221 C7.73780669,14.7224869 3.59121072,13.7188762 1.60807909,10.5254277 C-0.375008527,7.33197917 0.571428571,3.0437231 3.72651527,1.03632349 C6.88156743,-0.970942463 11.1182637,0.0327127897 13.0563232,3.22611677 C14.6790535,5.87225064 14.3635483,9.24804829 12.2901843,11.4834623 L15.1747594,14.4031421 C15.4902646,14.7682413 15.5353368,15.3613548 15.1747594,15.7262758 C15.1747594,15.6806997 15.1747594,15.7262758 15.1747594,15.7262758 Z M12.740818,6.87586134 C12.740818,3.86480648 10.3070526,1.40124449 7.33220114,1.40124449 C4.3575257,1.40124449 1.9235843,3.86480648 1.9235843,6.87586134 C1.9235843,9.88673799 4.3575257,12.3503 7.33220114,12.3503 C10.3070526,12.3503 12.740818,9.88673799 12.740818,6.87586134 Z" id="Fill-3" fill="#2776EF"></path>
    </g>
</svg>