<?xml version="1.0" encoding="UTF-8"?>
<svg width="24px" height="24px" viewBox="0 0 24 24" version="1.1" xmlns="http://www.w3.org/2000/svg" xmlns:xlink="http://www.w3.org/1999/xlink">
    <!-- Generator: Sketch 59.1 (86144) - https://sketch.com -->
    <title>icon/放大@1x</title>
    <desc>Created with Sketch.</desc>
    <g id="icon/放大" stroke="none" stroke-width="1" fill="none" fill-rule="evenodd">
        <path d="M11.2720107,12.7279893 C11.5976654,13.0536441 11.6248033,13.5647735 11.3534243,13.9213407 L11.2720107,14.0144988 L5.105,20.1805445 L10.1872957,20.180601 C10.6538222,20.180601 11.0383261,20.5317815 11.090875,20.9842103 L11.0969952,21.0903005 C11.0969952,21.556827 10.7458147,21.9413309 10.2933859,21.9938798 L10.1872957,22 L2.90969952,22 C2.87275738,22 2.83632954,21.997798 2.80054012,21.993518 C2.78746757,21.9918951 2.77443287,21.9900424 2.76143562,21.9879067 C2.73556534,21.9837227 2.71055311,21.9785009 2.68594042,21.9722758 C2.67805191,21.9702115 2.66930751,21.9678718 2.66059277,21.9653996 C2.63213112,21.9573608 2.60492394,21.9481688 2.57832641,21.9377608 C2.56674253,21.9332217 2.55530492,21.9284831 2.54394831,21.9235013 C2.52574594,21.9154871 2.50770071,21.9068297 2.48999689,21.897607 C2.47089273,21.8877288 2.45220077,21.8771449 2.4338234,21.8658474 C2.4204399,21.8575219 2.40736173,21.849005 2.39452183,21.8401668 C2.34957964,21.8093305 2.30660207,21.7737124 2.26644482,21.7335552 L2.331,21.79 L2.26572822,21.7328378 C2.21311098,21.6801038 2.1669295,21.6209458 2.1284621,21.5566418 L2.10446946,21.5140917 L2.10446946,21.5140917 L2.08042988,21.4648299 L2.08042988,21.4648299 C2.07191714,21.4459858 2.06436281,21.4276094 2.05743517,21.4090521 C2.05213389,21.3949736 2.04707445,21.3803415 2.04238316,21.3655455 C2.03630208,21.346129 2.03087968,21.3267525 2.02611059,21.3072489 C2.02151899,21.2887968 2.0176033,21.2703033 2.01425851,21.251612 C2.0047756,21.1982714 2,21.144286 2,21.0903005 L2,13.8127043 C2,13.3102911 2.40728635,12.9030048 2.90969952,12.9030048 C3.37622604,12.9030048 3.76072994,13.2541853 3.81327883,13.7066141 L3.81939905,13.8127043 L3.819,18.8935445 L9.98550125,12.7279893 C10.340761,12.3727296 10.9167509,12.3727296 11.2720107,12.7279893 Z M21.0903005,2 C21.1272324,2 21.1636502,2.0022008 21.1994301,2.00647841 L21.2515689,2.0143268 L21.2515689,2.0143268 C21.2703033,2.0176033 21.2887968,2.02151899 21.3070736,2.02598689 C21.3267525,2.03087968 21.346129,2.03630208 21.3653437,2.04237779 C21.3803415,2.04707445 21.3949736,2.05213389 21.4094311,2.05755071 C21.4276094,2.06436281 21.4459858,2.07191714 21.4641488,2.08009816 L21.5148469,2.10493491 L21.5148469,2.10493491 L21.5561583,2.12808299 L21.5561583,2.12808299 L21.5948853,2.15264377 L21.5948853,2.15264377 L21.6316142,2.17842996 L21.6437473,2.18766505 C21.7047154,2.23446789 21.7595856,2.28881901 21.8069608,2.3493211 C21.8186175,2.36410156 21.8297789,2.37929305 21.8404092,2.39473992 C21.849005,2.40736173 21.8575219,2.4204399 21.865706,2.43374473 C21.8771449,2.45220077 21.8877288,2.47089273 21.8975992,2.48985953 C21.9068297,2.50770071 21.9154871,2.52574594 21.9235554,2.54410866 L21.9377168,2.57825324 L21.9377168,2.57825324 C21.9481688,2.60492394 21.9573608,2.63213112 21.9652685,2.65987955 C21.9678718,2.66930751 21.9702115,2.67805191 21.9724187,2.6868228 C21.9785009,2.71055311 21.9837227,2.73556534 21.9878953,2.76093105 L21.9934651,2.80052979 L21.9934651,2.80052979 L21.9983574,2.85468626 L21.9983574,2.85468626 L22,2.90969952 L22,10.1872957 C22,10.6897089 21.5927137,11.0969952 21.0903005,11.0969952 C20.623774,11.0969952 20.2392701,10.7458147 20.1867212,10.2933859 L20.180601,10.1872957 L20.1805445,5.105 L14.0144988,11.2720107 C13.688844,11.5976654 13.1777146,11.6248033 12.8211474,11.3534243 L12.7279893,11.2720107 C12.4023346,10.9463559 12.3751967,10.4352265 12.6465757,10.0786593 L12.7279893,9.98550125 L18.8935445,3.819 L13.8127043,3.81939905 C13.3461778,3.81939905 12.9616739,3.46821847 12.909125,3.01578971 L12.9030048,2.90969952 C12.9030048,2.44317301 13.2541853,2.05866911 13.7066141,2.00612021 L13.8127043,2 L21.0903005,2 Z" id="形状结合" fill="#FFFFFF" fill-rule="nonzero"></path>
    </g>
</svg>