<?xml version="1.0" encoding="UTF-8"?>
<svg width="12px" height="12px" viewBox="0 0 12 12" version="1.1" xmlns="http://www.w3.org/2000/svg" xmlns:xlink="http://www.w3.org/1999/xlink">
    <!-- Generator: Sketch 59.1 (86144) - https://sketch.com -->
    <title>时间@1x</title>
    <desc>Created with Sketch.</desc>
    <g id="时间" stroke="none" stroke-width="1" fill="none" fill-rule="evenodd">
        <path d="M10.5035273,0.204238559 C10.7265593,0.204238559 10.9073669,0.388946279 10.9073669,0.616845404 C10.9073669,0.844663947 10.7265593,1.02937167 10.5035273,1.02937167 L10.5035273,1.02937167 L10.0708396,1.02937167 L10.0708396,2.27819956 C10.0708396,3.90372742 9.12942817,5.30923697 7.76219459,5.97975129 C9.12942817,6.6503462 10.0708396,8.05585575 10.0708396,9.68138361 L10.0708396,9.68138361 L10.0708396,10.9301954 L10.5035273,10.9301954 C10.7265593,10.9301954 10.9073669,11.1148386 10.9073669,11.3427378 C10.9073669,11.5706369 10.7265593,11.7553285 10.5035273,11.7553285 L10.5035273,11.7553285 L1.40385575,11.7553285 C1.1808076,11.7553285 1,11.5706369 1,11.3427378 C1,11.1148386 1.1808076,10.9301309 1.40385575,10.9301309 L1.40385575,10.9301309 L1.82961341,10.9301309 L1.82961341,9.68138361 C1.82961341,8.05579129 2.77102487,6.6503462 4.13825846,5.97975129 C2.77102487,5.30923697 1.82961341,3.90372742 1.82961341,2.27819956 L1.82961341,2.27819956 L1.82961341,1.02937167 L1.4039041,1.02937167 C1.18087207,1.02937167 1,0.844663947 1,0.616845404 C1,0.388946279 1.18087207,0.204238559 1.4039041,0.204238559 L1.4039041,0.204238559 Z M5.96227338,6.39959431 C4.13566375,6.39959431 2.65493991,7.88033426 2.65493991,9.70687943 L2.65493991,9.70687943 L2.65493991,10.9301954 L9.26962296,10.9301954 L9.26962296,9.70687943 C9.26962296,7.88033426 7.78881854,6.39959431 5.96227338,6.39959431 Z M9.26962296,1.02937167 L2.65493991,1.02937167 L2.65493991,2.25263928 C2.65493991,4.07924891 4.13566375,5.55997274 5.96227338,5.55997274 C7.78881854,5.55997274 9.26962296,4.07924891 9.26962296,2.25263928 L9.26962296,2.25263928 L9.26962296,1.02937167 Z M3.89487167,1.86143474 C4.12294807,1.86143474 4.30784918,2.04633585 4.30784918,2.27441226 C4.30784918,3.19877278 5.03194986,3.92280899 5.95629427,3.92280899 C6.18438679,3.92280899 6.36927179,4.10769399 6.36927179,4.33578651 C6.36927179,4.56386291 6.18438679,4.74881238 5.95629427,4.74881238 C4.56878651,4.74881238 3.48189415,3.66192002 3.48189415,2.27441226 C3.48189415,2.04633585 3.66679526,1.86143474 3.89487167,1.86143474 Z" id="形状结合" fill="#FFFFFF"></path>
    </g>
</svg>