<?xml version="1.0" standalone="no"?><!DOCTYPE svg PUBLIC "-//W3C//DTD SVG 1.1//EN" "http://www.w3.org/Graphics/SVG/1.1/DTD/svg11.dtd"><svg t="1587882043792" class="icon" viewBox="0 0 1024 1024" version="1.1" xmlns="http://www.w3.org/2000/svg" p-id="2964" xmlns:xlink="http://www.w3.org/1999/xlink" width="200" height="200"><defs><style type="text/css"></style></defs><path d="M646.918 614.605a50.995 50.995 0 0 1 76.083 0L916.537 820.94l-1.228-161.587c-0.512-23.45 16.793-43.828 38.4-43.316h27.648c21.81 0.512 39.73 14.541 40.345 37.888l1.024 299.008-1.331 1.332 2.048 21.196c0.307 11.776-2.253 22.324-9.318 29.799a35.84 35.84 0 0 1-27.648 11.878l-19.559-0.512-1.126-0.205-277.095 1.844c-21.708-0.615-39.73-19.968-40.243-43.418v-29.696c3.38-27.648 23.45-41.984 45.159-41.574l146.841-0.615L646.918 696.73a61.338 61.338 0 0 1 0-82.023z m-344.78 0a50.995 50.995 0 0 1 76.185 0l6.144 7.987a61.542 61.542 0 0 1-6.144 74.035L184.889 902.861l148.685 0.512c21.709-0.512 41.984 13.824 45.159 41.472v29.9c-0.512 23.45-18.432 42.804-40.244 43.418l-280.576-1.843-1.126 0.205-19.763 0.512a35.84 35.84 0 0 1-27.546-11.879c-6.963-7.475-9.523-18.022-9.216-29.9l2.048-21.095c0-0.512-1.536-0.819-1.536-1.229l1.127-301.26c0.512-23.552 18.432-37.376 40.243-37.888H71.43c21.709-0.717 38.912 19.763 38.503 43.212l-1.23 162.612zM338.488 0.512c21.812 0.512 39.732 19.866 40.244 43.315v29.901c-3.277 27.648-23.45 43.827-45.159 43.213l-146.944 0.614 191.693 204.39a61.44 61.44 0 0 1 0 82.125 50.995 50.995 0 0 1-76.083 0L108.704 199.066l1.229 165.17c0.512 23.348-16.794 43.726-38.503 43.214H42.144c-21.71-0.512-39.731-14.541-40.243-37.99L0.877 65.74c0-0.511 1.33-0.716 1.33-1.126L0.263 43.315a40.96 40.96 0 0 1 9.114-29.798A35.84 35.84 0 0 1 37.024 1.638l19.763 0.41 1.024 0.205zM670.265 0l293.581 1.74 1.229-0.204 20.48-0.512c11.264-0.307 21.504 4.198 28.774 11.571 7.373 7.373 10.036 17.613 9.83 29.082l-2.252 20.685c0 0.41 1.536 0.716 1.536 1.126l-1.126 295.936c-0.615 22.733-19.456 36.352-41.984 36.864h-28.98c-22.528 0.614-40.652-19.354-40.14-42.086l1.33-162.1-202.137 200.91a55.808 55.808 0 0 1-79.36 0 56.627 56.627 0 0 1 0-79.873l200.09-199.065-155.648-0.615A46.285 46.285 0 0 1 628.28 71.27V42.291A43.52 43.52 0 0 1 670.265 0z" p-id="2965"></path></svg>