<?xml version="1.0" encoding="UTF-8"?>
<svg width="24px" height="24px" viewBox="0 0 24 24" version="1.1" xmlns="http://www.w3.org/2000/svg" xmlns:xlink="http://www.w3.org/1999/xlink">
    <g id="icon-/-视频列表页-重播" stroke="none" stroke-width="1" fill="none" fill-rule="evenodd">
		<path
			d="M7.657,6.22699236 L9.35639769,8.11430642 C9.68904036,8.4836488 9.65928936,9.05272012 9.28994697,9.38536279 C8.95138312,9.69028523 8.44499148,9.69069633 8.10672446,9.40415965 L8.0188906,9.31891207 L4.99428405,5.96060745 C4.71398532,5.64938398 4.68850361,5.19140992 4.91783894,4.85350453 L4.99428405,4.7560018 L8.0188906,1.39769717 C8.35153327,1.02835479 8.92060459,0.998603788 9.28994697,1.33124645 C9.62851083,1.6361689 9.68172359,2.13975709 9.43202169,2.50605862 L9.35639769,2.60230283 L7.712,4.42699236 L11.9825805,4.42715562 C16.8007564,4.42715562 20.7228361,8.26444249 20.8613739,13.0503559 L20.8651609,13.3123291 C20.8651609,18.2194095 16.8883596,22.1975026 11.9825805,22.1975026 C7.07680128,22.1975026 3.1,18.2194095 3.1,13.3123291 C3.1,12.8152728 3.50294373,12.4123291 4,12.4123291 C4.49705627,12.4123291 4.9,12.8152728 4.9,13.3123291 C4.9,17.2254278 8.07104473,20.3975026 11.9825805,20.3975026 C15.8941162,20.3975026 19.0651609,17.2254278 19.0651609,13.3123291 C19.0651609,9.47908958 16.0222259,6.35693669 12.2211163,6.2310984 L11.9825805,6.22715562 L7.657,6.22699236 L9.35639769,8.11430642 L7.657,6.22699236 Z"
			id="svg" fill="#FFFFFF" fill-rule="nonzero"></path>
	</g>
</svg>